PathFileType	4	(X/Y/Z)	C:/Users/opensim2020/Desktop/walking_exp_matlab/subject06_walking12_straigt_02.trc	
DataRate	CameraRate	NumFrames	NumMarkers	Units	OrigDataRate	OrigDataStartFrame	OrigNumFrames	
100.00	100.00	5	48	mm	100.00	1628	215	
Frame#	Time	LFHD			RFHD			LBHD			RBHD			C7			T10			CLAV			STRN			RBAK			LSHO			LUPA			LELB			LFRM			LWRA			LWRB			LFIN			RSHO			RUPA			RELB			RFRM			RWRA			RWRB			RFIN			LASI			RASI			LPSI			RPSI			LTHI			LKNE			LTIB			LANK			LHEE			LTOE			RTHI			RKNE			RTIB			RANK			RHEE			RTOE			*39			*40			*41			*42			*43			*44			*45			*46			*47			
		X1	Y1	Z1	X2	Y2	Z2	X3	Y3	Z3	X4	Y4	Z4	X5	Y5	Z5	X6	Y6	Z6	X7	Y7	Z7	X8	Y8	Z8	X9	Y9	Z9	X10	Y10	Z10	X11	Y11	Z11	X12	Y12	Z12	X13	Y13	Z13	X14	Y14	Z14	X15	Y15	Z15	X16	Y16	Z16	X17	Y17	Z17	X18	Y18	Z18	X19	Y19	Z19	X20	Y20	Z20	X21	Y21	Z21	X22	Y22	Z22	X23	Y23	Z23	X24	Y24	Z24	X25	Y25	Z25	X26	Y26	Z26	X27	Y27	Z27	X28	Y28	Z28	X29	Y29	Z29	X30	Y30	Z30	X31	Y31	Z31	X32	Y32	Z32	X33	Y33	Z33	X34	Y34	Z34	X35	Y35	Z35	X36	Y36	Z36	X37	Y37	Z37	X38	Y38	Z38	X39	Y39	Z39	X40	Y40	Z40	X41	Y41	Z41	X42	Y42	Z42	X43	Y43	Z43	X44	Y44	Z44	X45	Y45	Z45	X46	Y46	Z46	X47	Y47	Z47	X48	Y48	Z48	

189	1.880	1489.39893	-767.29694	1658.33215	1358.62952	-755.50464	1639.80103	1505.32568	-634.20056	1605.26538	1377.32397	-623.67438	1592.28076	1451.94690	-628.09778	1439.77600	1442.89905	-606.45520	1109.26599	1449.02332	-741.22668	1367.03723	1462.09741	-788.62018	1192.20569	1381.94946	-560.97888	1263.61548	1610.90259	-684.04047	1401.00818	1687.17188	-726.12817	1206.24451	1702.03918	-759.98193	1099.57971	1711.55566	-882.39874	1018.37720	1655.76904	-1003.38959	1005.41119	1691.80103	-978.73608	950.59833	1686.97815	-1068.10962	944.73291	1288.12158	-688.92371	1392.95178	1214.10181	-623.00214	1196.90173	1207.72803	-614.24243	1075.10681	1192.18970	-600.51764	955.20258	1216.71118	-628.64075	804.41345	1184.92126	-571.42981	820.21973	1180.37891	-585.38531	736.30365	1563.79968	-771.64563	947.63562	1342.21045	-792.64569	955.33398	1517.86243	-616.84869	979.21820	1350.47266	-638.94647	979.64301	1607.69214	-652.06494	642.31848	1584.13293	-614.48340	481.18018	1570.13586	-466.32761	266.45068	1520.24426	-384.46512	115.02160	1475.73340	-341.66452	119.52943	1514.42725	-508.28989	39.08487	1279.71924	-796.86768	627.74561	1313.81506	-840.88458	513.71179	1331.36182	-873.27063	251.72092	1384.73059	-924.17084	78.50186	1434.42029	-898.68011	60.16050	1376.01648	-1088.72021	36.76918	1437.25964	-662.30341	1694.16040																								 
190	1.890	1487.90503	-778.13318	1658.39270	1357.18323	-766.26825	1639.67053	1503.95972	-645.03400	1605.33081	1375.95020	-634.48700	1592.19971	1450.44971	-638.96649	1439.65576	1441.86609	-618.32928	1108.83093	1447.83777	-752.17407	1367.07471	1461.11926	-799.92383	1192.35791	1380.60571	-572.05670	1263.01880	1609.74780	-694.84711	1400.90613	1685.84314	-735.70319	1205.54297	1700.64417	-768.68842	1098.65881	1710.47632	-890.80060	1016.91327	1654.71350	-1011.73462	1003.66406	1690.67346	-986.74384	948.79584	1685.88550	-1076.12476	942.66516	1286.80566	-699.99365	1392.60205	1212.79480	-635.01917	1196.16833	1206.51331	-626.47992	1074.40454	1190.95715	-613.09381	954.53125	1215.69641	-641.20892	803.63580	1183.75012	-584.26642	819.45831	1179.10132	-598.44214	735.63629	1562.94934	-783.83069	947.41370	1341.22705	-804.97815	955.78052	1517.07556	-629.19055	978.62134	1349.81531	-651.26581	979.77832	1607.07153	-664.78271	641.63751	1583.57129	-628.21942	480.23831	1570.33252	-474.76163	269.25085	1521.44238	-388.55417	120.18517	1477.12085	-345.95102	126.25615	1514.42834	-509.06372	39.07952	1280.65198	-810.52698	629.07300	1315.96936	-854.69550	515.78711	1331.91455	-880.72876	251.42041	1385.97717	-924.42706	76.37024	1434.92249	-898.03131	56.81473	1377.68494	-1089.08948	36.50276	1435.77588	-673.07074	1694.13574																								 
191	1.900	1486.40210	-788.92957	1658.67285	1355.67603	-777.15015	1639.80457	1502.55530	-655.88794	1605.66174	1374.61597	-645.24243	1592.39734	1449.23560	-649.65747	1439.80896	1441.14990	-629.86316	1108.69482	1446.64685	-762.98364	1367.40076	1460.09534	-811.14832	1192.82898	1379.18127	-583.25275	1262.68994	1608.64868	-705.56427	1401.05530	1684.49597	-745.08478	1205.08984	1699.26050	-777.09430	1097.91455	1709.12012	-898.57471	1015.28204	1653.65137	-1019.88440	1001.37616	1689.78259	-993.85974	946.37903	1684.90601	-1083.45215	939.68774	1285.46863	-711.14197	1392.55249	1211.49890	-647.04865	1195.71741	1205.26807	-639.05615	1073.93420	1189.75500	-625.89996	953.93726	1214.61450	-654.24554	803.09344	1182.40442	-597.44305	818.85626	1177.86682	-611.76190	735.17261	1561.97046	-796.16345	947.55280	1340.12500	-817.55768	956.76251	1516.44678	-641.46979	978.47028	1349.12085	-663.11353	980.55774	1606.41113	-677.86597	641.11011	1583.38550	-642.34460	479.43933	1570.50940	-483.80997	272.51410	1522.60925	-393.31021	125.98909	1478.41370	-351.22110	133.69402	1514.33813	-509.90552	39.06668	1282.25000	-824.31897	630.14032	1317.37292	-867.51117	516.78192	1331.20691	-888.16565	251.14957	1386.14795	-924.83826	74.49963	1434.76416	-897.61407	53.72749	1378.31287	-1089.55981	36.58677	1434.26294	-683.94604	1694.37683																								 
192	1.910	1484.80835	-799.82300	1658.96960	1354.29382	-787.87750	1639.98206	1501.16235	-666.66290	1606.27551	1373.18250	-656.02197	1592.90393	1447.53174	-660.76514	1440.21912	1440.00500	-641.68231	1108.76428	1445.43420	-773.82465	1367.90161	1459.08838	-822.36414	1193.55457	1377.99646	-594.21802	1262.75830	1607.43799	-716.45740	1401.38525	1683.03125	-754.28662	1204.86487	1697.73120	-785.39398	1097.42468	1707.86328	-906.08258	1013.40552	1652.67639	-1027.65955	998.47516	1688.66077	-1000.48383	943.39337	1684.04028	-1090.16345	935.88184	1284.20984	-722.04340	1392.76282	1210.29407	-659.09637	1195.47607	1204.06360	-651.67334	1073.67468	1188.55347	-639.06567	953.67993	1213.42090	-667.97821	803.01166	1181.16309	-611.01971	818.44165	1176.53174	-625.77692	734.79749	1560.78516	-808.36169	947.94110	1339.11023	-829.90356	957.96478	1516.10071	-653.61255	978.50323	1348.88696	-675.54724	981.14429	1605.83301	-691.46271	640.70227	1583.36865	-657.38580	478.74991	1570.69775	-493.60800	276.27258	1523.54956	-399.28299	132.29279	1479.36548	-357.69446	141.82414	1514.17639	-510.91028	39.01439	1282.69275	-838.45569	631.72760	1317.69397	-879.23303	516.83118	1330.27161	-894.18451	251.05902	1385.58984	-925.61298	72.65201	1433.93604	-897.30127	50.86356	1378.79041	-1089.99561	36.61445	1432.78711	-694.94855	1694.85815																								 
193	1.920	1483.27100	-810.67139	1659.49402	1352.77612	-798.37823	1640.24170	1499.75720	-677.46326	1607.02197	1371.89844	-666.57275	1593.55688	1446.42419	-671.17493	1440.63684	1439.04504	-652.92023	1109.19812	1444.25781	-784.48199	1368.57349	1458.09949	-833.59546	1194.34045	1376.59888	-605.39642	1262.89514	1606.28088	-727.03186	1401.97620	1681.60535	-763.33099	1204.90906	1696.15918	-793.49701	1097.17078	1706.19507	-912.86786	1011.43616	1651.77637	-1034.52893	994.64813	1687.63416	-1006.44360	939.95282	1683.27795	-1096.01624	931.12573	1282.98608	-732.90692	1393.16418	1209.15234	-671.16443	1195.48450	1202.91077	-664.43970	1073.68921	1187.29932	-652.47119	953.64233	1212.30969	-681.94458	802.98108	1179.81995	-625.19415	818.31146	1175.26648	-640.11365	734.71039	1559.50134	-820.46143	948.60645	1338.31836	-842.13867	959.33600	1515.58154	-665.83679	978.70837	1348.58997	-687.75427	982.09698	1605.50439	-705.50964	640.45264	1584.00879	-673.42261	478.03702	1570.92419	-504.28174	280.39301	1524.40588	-405.83591	139.18474	1479.76990	-365.54520	150.50720	1513.99939	-512.08582	39.04998	1282.45874	-851.78204	632.59094	1317.38892	-890.13971	516.78394	1329.37146	-899.08527	250.55775	1384.91492	-926.31641	70.59599	1433.12061	-897.00232	47.86921	1379.15051	-1090.07715	36.73341	1431.27283	-705.82208	1695.50330																								 
